HIERARCHY
ROOT Hips
{
	OFFSET 0.000000 0.000000 0.000000
	CHANNELS 6 Xposition Yposition Zposition Zrotation Yrotation Xrotation 
	JOINT LowerBack
	{
		OFFSET 0.000000 0.000000 0.000000
		CHANNELS 3 Zrotation Yrotation Xrotation
		JOINT Spine
		{
			OFFSET 0.028270 2.035590 -0.193380
			CHANNELS 3 Zrotation Yrotation Xrotation
			JOINT Spine1
			{
				OFFSET 0.056720 2.048850 -0.042750
				CHANNELS 3 Zrotation Yrotation Xrotation
				JOINT Neck
				{
					OFFSET 0.000000 0.000000 0.000000
					CHANNELS 3 Zrotation Yrotation Xrotation
					JOINT Neck1
					{
						OFFSET -0.054170 1.746240 0.172020
						CHANNELS 3 Zrotation Yrotation Xrotation
						JOINT Head
						{
							OFFSET 0.104070 1.761360 -0.123970
							CHANNELS 3 Zrotation Yrotation Xrotation
							End Site
							{
								OFFSET 0.000000 0.000000 0.000000
							}
						}
					}
				}
				JOINT LeftShoulder
				{
					OFFSET 0.000000 0.000000 0.000000
					CHANNELS 3 Zrotation Yrotation Xrotation
					JOINT LeftArm
					{
						OFFSET 3.362410 1.200890 -0.311210
						CHANNELS 3 Zrotation Yrotation Xrotation
						JOINT LeftForeArm
						{
							OFFSET 4.983000 -0.000000 -0.000000
							CHANNELS 3 Zrotation Yrotation Xrotation
							JOINT LeftHand
							{
								OFFSET 3.483560 -0.000000 -0.000000
								CHANNELS 3 Zrotation Yrotation Xrotation
								JOINT LeftFingerBase
								{
									OFFSET 0.000000 0.000000 0.000000
									CHANNELS 3 Zrotation Yrotation Xrotation
									JOINT LeftHandIndex1
									{
										OFFSET 0.715260 -0.000000 -0.000000
										CHANNELS 3 Zrotation Yrotation Xrotation
										End Site
										{
											OFFSET 0.000000 0.000000 0.000000
										}
									}
								}
								JOINT LThumb
								{
									OFFSET 0.000000 0.000000 0.000000
									CHANNELS 3 Zrotation Yrotation Xrotation
									End Site
									{
										OFFSET 0.000000 0.000000 0.000000
									}
								}
							}
						}
					}
				}
				JOINT RightShoulder
				{
					OFFSET 0.000000 0.000000 0.000000
					CHANNELS 3 Zrotation Yrotation Xrotation
					JOINT RightArm
					{
						OFFSET -3.136600 1.374050 -0.404650
						CHANNELS 3 Zrotation Yrotation Xrotation
						JOINT RightForeArm
						{
							OFFSET -5.241900 -0.000000 -0.000000
							CHANNELS 3 Zrotation Yrotation Xrotation
							JOINT RightHand
							{
								OFFSET -3.444170 -0.000000 -0.000000
								CHANNELS 3 Zrotation Yrotation Xrotation
								JOINT RightFingerBase
								{
									OFFSET 0.000000 0.000000 0.000000
									CHANNELS 3 Zrotation Yrotation Xrotation
									JOINT RightHandIndex1
									{
										OFFSET -0.622530 -0.000000 -0.000000
										CHANNELS 3 Zrotation Yrotation Xrotation
										End Site
										{
											OFFSET 0.000000 0.000000 0.000000
										}
									}
								}
								JOINT RThumb
								{
									OFFSET 0.000000 0.000000 0.000000
									CHANNELS 3 Zrotation Yrotation Xrotation
									End Site
									{
										OFFSET 0.000000 0.000000 0.000000
									}
								}
							}
						}
					}
				}
			}
		}
	}
}
}
MOTION
Frames: 9
Frame Time: 0.008333
2.130170 17.332829 -0.528175 131.759745 -81.382971 -124.318546 -2.897121 -1.231371 -3.446535 -1.213739 -1.144047 -3.073346 -5.736377 -1.168731 2.014219 2.721687 -11.334002 -6.176041 -3.338361 -0.275309 0.321139 0.000000 0.000000 0.000000 -1.718586 14.871085 0.809377 -59.846047 6.990920 -20.221444 -2.844405 -37.053446 0.023601 20.241758 -6.658862 -1.192935 -0.132038 -0.018916 0.000000 0.000000 0.000000 0.000000 0.000000 0.000000 0.000000 7.163917 -7.488002 -3.051021 71.875112 4.060861 -4.485994 0.495841 67.897919 -0.053065 -13.426833 12.111225 -1.492630 0.152524 -0.387484 0.000000 0.000000 0.000000 0.000000 0.000000 0.000000 0.000000 
2.150181 17.327778 -0.565997 130.791247 -81.117493 -124.072938 -3.288482 -1.213930 -2.825586 -1.290297 -1.081454 -2.941188 -5.725453 -1.098568 2.038573 2.715346 -11.405258 -6.205463 -3.315667 -0.272578 0.303810 0.000000 0.000000 0.000000 -2.048062 15.496609 0.772700 -60.053940 7.450901 -20.545740 -2.865803 -36.839737 0.025671 20.364652 -6.648112 -1.197244 -0.132564 -0.024746 0.000000 0.000000 0.000000 0.000000 0.000000 0.000000 0.000000 7.132314 -7.497518 -3.108952 72.144023 3.401324 -4.210120 0.511414 68.059240 -0.051598 -13.312768 12.179898 -1.488024 0.153321 -0.385919 0.000000 0.000000 0.000000 0.000000 0.000000 0.000000 0.000000 
2.167962 17.323608 -0.601813 129.686768 -80.944805 -123.529679 -3.630074 -1.191264 -2.318284 -1.356073 -1.020929 -2.830241 -5.711080 -1.031240 2.075627 2.707352 -11.481499 -6.241234 -3.288457 -0.269562 0.286131 0.000000 0.000000 0.000000 -2.376407 16.121617 0.732022 -60.282134 7.877984 -20.912522 -2.881227 -36.742029 0.027639 20.478472 -6.672970 -1.207746 -0.133667 -0.029758 0.000000 0.000000 0.000000 0.000000 0.000000 0.000000 0.000000 7.079282 -7.514576 -3.157730 72.365838 2.776209 -4.064013 0.526555 68.164951 -0.050351 -13.251287 12.234253 -1.487615 0.154818 -0.384301 -0.000000 0.000000 0.000000 0.000000 0.000000 0.000000 0.000000 
2.183245 17.321132 -0.636308 128.381290 -80.856097 -122.615120 -3.936887 -1.164196 -1.933574 -1.415490 -0.962294 -2.741808 -5.697639 -0.966796 2.125803 2.708152 -11.568668 -6.281103 -3.259817 -0.266548 0.268820 0.000000 0.000000 0.000000 -2.693083 16.728299 0.687410 -60.518102 8.274686 -21.316792 -2.892768 -36.740932 0.029440 20.566720 -6.712834 -1.219641 -0.135338 -0.033960 0.000000 0.000000 0.000000 0.000000 0.000000 0.000000 0.000000 7.030385 -7.546567 -3.196307 72.540336 2.197289 -4.048801 0.542367 68.203579 -0.049305 -13.248849 12.268260 -1.491405 0.157158 -0.382466 -0.000000 0.000000 0.000000 0.000000 0.000000 0.000000 0.000000 
2.196255 17.320848 -0.669949 126.811276 -80.843726 -121.262195 -4.222014 -1.132879 -1.675440 -1.472570 -0.904799 -2.677074 -5.689468 -0.904675 2.186538 2.728322 -11.657945 -6.321347 -3.232891 -0.263834 0.252944 0.000000 0.000000 0.000000 -2.982556 17.300043 0.640738 -60.756467 8.639256 -21.761561 -2.902193 -36.814406 0.030981 20.614636 -6.747723 -1.228432 -0.137525 -0.037282 0.000000 0.000000 0.000000 0.000000 0.000000 0.000000 0.000000 7.007992 -7.584492 -3.223781 72.664496 1.657377 -4.175449 0.559092 68.182958 -0.048471 -13.306757 12.276173 -1.498890 0.160341 -0.380357 -0.000000 0.000000 0.000000 0.000000 0.000000 0.000000 0.000000 
2.207336 17.322935 -0.703028 124.920747 -80.896890 -119.413899 -4.494799 -1.098360 -1.537783 -1.529808 -0.848544 -2.634361 -5.688371 -0.844922 2.258698 2.774005 -11.761241 -6.366110 -3.208328 -0.261419 0.237422 0.000000 0.000000 0.000000 -3.238782 17.828701 0.592948 -60.986813 8.960231 -22.229603 -2.910737 -36.943109 0.032190 20.615670 -6.762284 -1.230819 -0.140169 -0.039681 -0.000000 0.000000 0.000000 0.000000 0.000000 0.000000 0.000000 7.023830 -7.641233 -3.238815 72.740360 1.179840 -4.429080 0.577128 68.098136 -0.047856 -13.427957 12.255111 -1.510172 0.164417 -0.377959 -0.000000 0.000000 0.000000 0.000000 0.000000 0.000000 0.000000 
2.216997 17.327260 -0.735433 122.667516 -81.008056 -117.029142 -4.757625 -1.060669 -1.512318 -1.588200 -0.793030 -2.612827 -5.695669 -0.787046 2.338982 2.848793 -11.870202 -6.416024 -3.186889 -0.259344 0.222103 0.000000 0.000000 0.000000 -3.452856 18.304205 0.547156 -61.207578 9.230566 -22.713440 -2.918774 -37.113110 0.032985 20.566625 -6.742751 -1.224204 -0.143157 -0.041100 -0.000000 0.000000 0.000000 0.000000 0.000000 0.000000 0.000000 7.082107 -7.707556 -3.240082 72.766084 0.759650 -4.809075 0.595841 67.967658 -0.047493 -13.608964 12.202485 -1.524151 0.169273 -0.375356 -0.000000 0.000000 0.000000 0.000000 0.000000 0.000000 0.000000 
2.225970 17.333343 -0.766728 120.014029 -81.170780 -114.074980 -5.004311 -1.020334 -1.587934 -1.646147 -0.738640 -2.610546 -5.709723 -0.731358 2.426228 2.949782 -11.996470 -6.477313 -3.167017 -0.257411 0.205415 0.000000 0.000000 0.000000 -3.630244 18.719183 0.505097 -61.413841 9.445884 -23.192405 -2.925662 -37.323930 0.033323 20.471619 -6.676942 -1.206491 -0.146363 -0.041567 -0.000000 0.000000 0.000000 0.000000 0.000000 0.000000 0.000000 7.174396 -7.794748 -3.225788 72.741039 0.414928 -5.288491 0.614797 67.797387 -0.047397 -13.848124 12.119096 -1.540728 0.174857 -0.372647 -0.000000 0.000000 0.000000 0.000000 0.000000 0.000000 0.000000 
2.235200 17.340471 -0.796188 116.922620 -81.379090 -110.526425 -5.227233 -0.976518 -1.739833 -1.701819 -0.684184 -2.624323 -5.729218 -0.676519 2.514402 3.073154 -12.114070 -6.549839 -3.148029 -0.255517 0.187225 0.000000 0.000000 0.000000 -3.762364 19.072187 0.471966 -61.617100 9.588247 -23.663218 -2.930617 -37.562640 0.033165 20.336998 -6.567474 -1.178876 -0.149640 -0.041002 -0.000000 0.000000 0.000000 0.000000 0.000000 0.000000 0.000000 7.286837 -7.875216 -3.195044 72.664764 0.120528 -5.875424 0.632012 67.624794 -0.047632 -14.134747 12.005704 -1.558504 0.180852 -0.370057 -0.000000 0.000000 0.000000 0.000000 0.000000 0.000000 0.000000 
